<svg xmlns="http://www.w3.org/2000/svg" width="40" height="40" viewBox="0 0 40 40" fill="none">
  <path d="M32 9.6A26 26 0 0 0 25.5 8l-.4.7a23 23 0 0 0-10.2 0L14.5 8A26 26 0 0 0 8 9.6c-4 6-5 11.8-4.5 17.6 2.7 2 5.3 3.2 8 4l.6-1c-1-.4-2-.9-2.9-1.5l.7-.5a16.5 16.5 0 0 0 20.4 0l.7.5c-1 .6-1.9 1.1-2.9 1.5l.6 1a25 25 0 0 0 8-4c.7-6.7-1.1-12.4-4.7-17.6zM14.5 24c-1.5 0-2.7-1.4-2.7-3 0-1.7 1.2-3 2.7-3s2.7 1.3 2.7 3-1.2 3-2.7 3zm11 0c-1.5 0-2.7-1.4-2.7-3 0-1.7 1.2-3 2.7-3s2.7 1.3 2.7 3-1.2 3-2.7 3z" fill="#fafafa"/>
</svg>
