<svg xmlns="http://www.w3.org/2000/svg" width="40" height="40" viewBox="0 0 40 40" fill="none">
  <path d="M36.4 16.4a9.6 9.6 0 0 0-.8-7.9 9.7 9.7 0 0 0-10.5-4.7A9.7 9.7 0 0 0 8.5 6.5a9.6 9.6 0 0 0-6.4 4.7 9.7 9.7 0 0 0 1.2 11.4 9.6 9.6 0 0 0 .8 7.9 9.7 9.7 0 0 0 10.5 4.7 9.6 9.6 0 0 0 7.3 3.3 9.7 9.7 0 0 0 9.3-6.7 9.6 9.6 0 0 0 6.4-4.7 9.7 9.7 0 0 0-1.2-10.7zM21.9 35.3a7.2 7.2 0 0 1-4.6-1.7l.2-.1 7.6-4.4a1.2 1.2 0 0 0 .6-1.1V17.2l3.2 1.9v9c0 4-3.2 7.2-7 7.2zM6.4 28.7a7.1 7.1 0 0 1-.9-4.8l.3.2 7.5 4.3a1.2 1.2 0 0 0 1.2 0l9.3-5.4v3.7l-7.7 4.4a7.2 7.2 0 0 1-9.7-2.4zm-2-16.5a7.2 7.2 0 0 1 3.7-3.1v9.2a1.2 1.2 0 0 0 .6 1l9.3 5.4-3.2 1.9-7.7-4.4a7.2 7.2 0 0 1-2.7-9.9zm26 6L21.1 13l3.2-1.9 7.7 4.5a7.2 7.2 0 0 1-1.1 13v-9.2a1.2 1.2 0 0 0-.6-1zm3.2-4.8l-.3-.2-7.5-4.4a1.2 1.2 0 0 0-1.2 0L15.4 14V10.2l7.7-4.4a7.2 7.2 0 0 1 10.6 7.4zm-20.1 6.6L10.4 18v-9c0-4 3.2-7.2 7.2-7.2a7.2 7.2 0 0 1 4.5 1.6l-.2.1-7.6 4.4a1.2 1.2 0 0 0-.6 1.1v10.7zm1.7-3.7L20 13.5l4.3 2.5v5l-4.3 2.5-4.3-2.5z" fill="#fafafa"/>
</svg>
