<svg xmlns="http://www.w3.org/2000/svg" width="40" height="40" viewBox="0 0 40 40" fill="none">
  <path d="M20 4C11.2 4 4 11.2 4 20c0 2.8.7 5.5 2.1 7.9L4 36l8.4-2.2A16 16 0 0 0 36 20c0-8.8-7.2-16-16-16zm9.3 22.6c-.4 1.1-2 2.1-2.9 2.2-.7 0-1.7.1-2.7-.2-.6-.2-1.4-.4-2.4-.9-4.2-1.8-7-6-7.2-6.3-.2-.3-1.7-2.3-1.7-4.3 0-2.1 1.1-3.1 1.5-3.5.4-.4.9-.5 1.2-.5h.8c.3 0 .6 0 .9.7.3.8 1.1 2.8 1.2 3 .1.2.2.4 0 .7-.1.3-.2.4-.4.7l-.6.7c-.2.2-.4.4-.2.8.2.4.9 1.5 2 2.4 1.4 1.2 2.6 1.6 3 1.8.4.2.6.1.8-.1.2-.2.9-1.1 1.2-1.5.2-.4.5-.3.8-.2.3.1 2.2 1 2.6 1.2.4.2.6.3.7.5 0 .2 0 1.2-.5 2.3z" fill="#fafafa"/>
</svg>
